<svg xmlns="http://www.w3.org/2000/svg" viewBox="0 0 128 128">
<defs><radialGradient id="sh"><stop stop-color="#06050c" stop-opacity="0.8"/><stop offset="0.55" stop-color="#06050c" stop-opacity="0.42"/><stop offset="1" stop-color="#06050c" stop-opacity="0"/></radialGradient><linearGradient id="fur" x2="0.8" y2="1"><stop stop-color="#8a7a5c"/><stop offset="0.42" stop-color="#5c4c38"/><stop offset="1" stop-color="#2e2618"/></linearGradient><linearGradient id="belly" x2="0.6" y2="1"><stop stop-color="#a8946c"/><stop offset="1" stop-color="#5c4c34"/></linearGradient><linearGradient id="paw" y2="1"><stop stop-color="#5c4c34"/><stop offset="1" stop-color="#2a2214"/></linearGradient><linearGradient id="light" x2="0.7" y2="1"><stop stop-color="#d6c1bc" stop-opacity="0.74"/><stop offset="0.6" stop-color="#a99ba4" stop-opacity="0.24"/><stop offset="1" stop-color="#9b889d" stop-opacity="0"/></linearGradient><radialGradient id="mulch"><stop stop-color="#241c12" stop-opacity="0.95"/><stop offset="0.55" stop-color="#3c2e18" stop-opacity="0.75"/><stop offset="0.85" stop-color="#5c4a24" stop-opacity="0.3"/><stop offset="1" stop-color="#5c4a24" stop-opacity="0"/></radialGradient><linearGradient id="bark" x2="0.85" y2="1"><stop stop-color="#a8906c"/><stop offset="0.5" stop-color="#6a5236"/><stop offset="1" stop-color="#3c2c1a"/></linearGradient><linearGradient id="moss" x2="0.7" y2="1"><stop stop-color="#9ac264"/><stop offset="0.5" stop-color="#5c8038"/><stop offset="1" stop-color="#2e4a20"/></linearGradient><radialGradient id="cap"><stop stop-color="#c8a878"/><stop offset="0.5" stop-color="#8c6844"/><stop offset="1" stop-color="#4c3420"/></radialGradient><clipPath id="rim-0-0"><path d="M40 84Q26 88 16 82 10 78 13 72 18 78 28 78 22 72 18 66 22 70 30 72 36 78Z"/></clipPath><clipPath id="rim-1-0"><path d="M88 68l6-2 1 4-6 2Z"/></clipPath><clipPath id="rim-1-1"><path d="M64 64 78 62 86 68 92 66 88 72 78 72 68 70Z"/></clipPath><clipPath id="rim-2-0"><path d="M112 76l7 1-2 5-7-1Z"/></clipPath><clipPath id="rim-2-1"><path d="M88 76 102 72 112 76 116 82 108 82 96 80Z"/></clipPath><clipPath id="rim-3-0"><path d="M40 86q16-16 36-18 24-2 34 6l4 12-14 8-40 2Z"/></clipPath><clipPath id="rim-3-1"><path d="M38 84q18-18 38-20 24-2 34 6-24-6-38 2-16 6-34 12Z"/></clipPath><clipPath id="rim-4-0"><path d="M52 66 64 58 82 58 90 66 80 74 62 74Z"/></clipPath><clipPath id="rim-5-0"><path d="M88 58q6-8 12-4-4 5-8 7Z"/></clipPath><clipPath id="rim-5-1"><path d="M46 62q4-10 12-8-2 6-6 9Z"/></clipPath><clipPath id="rim-7-0"><path d="M28 58q-6-2-6 4 2 6 8 8Z"/></clipPath><clipPath id="rim-7-1"><path d="M34 78Q26 72 24 64 22 58 28 58 34 62 38 70 44 78 50 82Z"/></clipPath><clipPath id="rim-9-0"><path d="M110 95l8 5-2 4-8-4Z"/></clipPath><clipPath id="rim-9-1"><path d="M78 84 90 86 102 90 112 96 110 101 98 96 86 92 76 90Z"/></clipPath><clipPath id="rim-11-0"><path d="M118 74q6-6 10-2-4 4-8 5Z"/></clipPath><clipPath id="rim-11-1"><path d="M114 80l6 2-4 4-6-2Z"/></clipPath></defs>
<ellipse cx="62" cy="88" rx="56" ry="18" fill="url(#mulch)"/><ellipse cx="64" cy="84" rx="46" ry="13" fill="url(#sh)"/><g stroke="#2f2939" stroke-width="1.8" stroke-linejoin="round"><path d="M40 84Q26 88 16 82 10 78 13 72 18 78 28 78 22 72 18 66 22 70 30 72 36 78Z" fill="url(#fur)"/><path d="M16 72q5 6 12 6-6 6-9-6Z" fill="#211f2e" opacity=".3"/><path d="M22 84q-8 2-12-2" stroke="#c2abb1" opacity=".5" stroke-width="1.4" fill="none"/><g clip-path="url(#rim-0-0)"><path d="M40 84Q26 88 16 82 10 78 13 72 18 78 28 78 22 72 18 66 22 70 30 72 36 78Z" transform="translate(-1.8 -1.4)" fill="none" stroke="#fff4e4" stroke-width="2.6" stroke-opacity="0.62" stroke-linejoin="round"/><path d="M40 84Q26 88 16 82 10 78 13 72 18 78 28 78 22 72 18 66 22 70 30 72 36 78Z" transform="translate(1.7 1.8)" fill="none" stroke="#0c0a12" stroke-width="3.4" stroke-opacity="0.5" stroke-linejoin="round"/></g></g><g stroke="#302b38" stroke-width="1.7" stroke-linejoin="round"><path d="M64 64 78 62 86 68 92 66 88 72 78 72 68 70Z" fill="url(#fur)"/><path d="M88 68l6-2 1 4-6 2Z" fill="url(#paw)"/><path d="M66 66q8-1 14 3" fill="none" stroke="#d6c1bc" stroke-width="1" opacity=".45"/><g clip-path="url(#rim-1-0)"><path d="M88 68l6-2 1 4-6 2Z" transform="translate(-1.8 -1.4)" fill="none" stroke="#fff4e4" stroke-width="2.6" stroke-opacity="0.62" stroke-linejoin="round"/><path d="M88 68l6-2 1 4-6 2Z" transform="translate(1.7 1.8)" fill="none" stroke="#0c0a12" stroke-width="3.4" stroke-opacity="0.5" stroke-linejoin="round"/></g><g clip-path="url(#rim-1-1)"><path d="M64 64 78 62 86 68 92 66 88 72 78 72 68 70Z" transform="translate(-1.8 -1.4)" fill="none" stroke="#fff4e4" stroke-width="2.6" stroke-opacity="0.62" stroke-linejoin="round"/><path d="M64 64 78 62 86 68 92 66 88 72 78 72 68 70Z" transform="translate(1.7 1.8)" fill="none" stroke="#0c0a12" stroke-width="3.4" stroke-opacity="0.5" stroke-linejoin="round"/></g></g><g stroke="#302b38" stroke-width="1.7" stroke-linejoin="round"><path d="M88 76 102 72 112 76 116 82 108 82 96 80Z" fill="url(#fur)"/><path d="M112 76l7 1-2 5-7-1Z" fill="url(#paw)"/><path d="M90 78q8-2 14 0" fill="none" stroke="#d6c1bc" stroke-width="1" opacity=".45"/><g clip-path="url(#rim-2-0)"><path d="M112 76l7 1-2 5-7-1Z" transform="translate(-1.8 -1.4)" fill="none" stroke="#fff4e4" stroke-width="2.6" stroke-opacity="0.62" stroke-linejoin="round"/><path d="M112 76l7 1-2 5-7-1Z" transform="translate(1.7 1.8)" fill="none" stroke="#0c0a12" stroke-width="3.4" stroke-opacity="0.5" stroke-linejoin="round"/></g><g clip-path="url(#rim-2-1)"><path d="M88 76 102 72 112 76 116 82 108 82 96 80Z" transform="translate(-1.8 -1.4)" fill="none" stroke="#fff4e4" stroke-width="2.6" stroke-opacity="0.62" stroke-linejoin="round"/><path d="M88 76 102 72 112 76 116 82 108 82 96 80Z" transform="translate(1.7 1.8)" fill="none" stroke="#0c0a12" stroke-width="3.4" stroke-opacity="0.5" stroke-linejoin="round"/></g></g><g stroke="#302b3a" stroke-width="1.8" stroke-linejoin="round"><path d="M28 86 38 76 52 66 76 60 98 62 112 72 118 82 112 90 86 92 62 90 38 92Z" fill="url(#fur)"/><path d="M40 86q16-16 36-18 24-2 34 6l4 12-14 8-40 2Z" fill="url(#belly)"/><path d="M38 84q18-18 38-20 24-2 34 6-24-6-38 2-16 6-34 12Z" fill="url(#light)" opacity=".55"/><path d="M30 88q8 6 18 4-10-2-18-4Z" fill="#211f2e" opacity=".35"/><path d="M52 74q12-6 24-6M60 82q14-4 26-4" fill="none" stroke="#c9b3b2" stroke-width="1.1" opacity=".35"/><g clip-path="url(#rim-3-0)"><path d="M40 86q16-16 36-18 24-2 34 6l4 12-14 8-40 2Z" transform="translate(-1.8 -1.4)" fill="none" stroke="#fff4e4" stroke-width="2.6" stroke-opacity="0.62" stroke-linejoin="round"/><path d="M40 86q16-16 36-18 24-2 34 6l4 12-14 8-40 2Z" transform="translate(1.7 1.8)" fill="none" stroke="#0c0a12" stroke-width="3.4" stroke-opacity="0.5" stroke-linejoin="round"/></g><g clip-path="url(#rim-3-1)"><path d="M38 84q18-18 38-20 24-2 34 6-24-6-38 2-16 6-34 12Z" transform="translate(-1.8 -1.4)" fill="none" stroke="#fff4e4" stroke-width="2.6" stroke-opacity="0.62" stroke-linejoin="round"/><path d="M38 84q18-18 38-20 24-2 34 6-24-6-38 2-16 6-34 12Z" transform="translate(1.7 1.8)" fill="none" stroke="#0c0a12" stroke-width="3.4" stroke-opacity="0.5" stroke-linejoin="round"/></g></g><g stroke="#4c3c26" stroke-width="1.4" stroke-linejoin="round"><path d="M52 66 64 58 82 58 90 66 80 74 62 74Z" fill="url(#bark)"/><path d="M58 62 62 70M68 60l2 12M78 60l2 12" stroke="#3c2c1a" fill="none"/><path d="M54 64q12-6 26-4" fill="none" stroke="#c8b08c" stroke-width="1" opacity=".5"/><g clip-path="url(#rim-4-0)"><path d="M52 66 64 58 82 58 90 66 80 74 62 74Z" transform="translate(-1.8 -1.4)" fill="none" stroke="#fff4e4" stroke-width="2.6" stroke-opacity="0.62" stroke-linejoin="round"/><path d="M52 66 64 58 82 58 90 66 80 74 62 74Z" transform="translate(1.7 1.8)" fill="none" stroke="#0c0a12" stroke-width="3.4" stroke-opacity="0.5" stroke-linejoin="round"/></g></g><g stroke="#4c3c26" stroke-width="1.2"><path d="M46 62q4-10 12-8-2 6-6 9Z" fill="url(#moss)"/><path d="M88 58q6-8 12-4-4 5-8 7Z" fill="url(#moss)"/><g clip-path="url(#rim-5-0)"><path d="M88 58q6-8 12-4-4 5-8 7Z" transform="translate(-1.8 -1.4)" fill="none" stroke="#fff4e4" stroke-width="2.6" stroke-opacity="0.62" stroke-linejoin="round"/><path d="M88 58q6-8 12-4-4 5-8 7Z" transform="translate(1.7 1.8)" fill="none" stroke="#0c0a12" stroke-width="3.4" stroke-opacity="0.5" stroke-linejoin="round"/></g><g clip-path="url(#rim-5-1)"><path d="M46 62q4-10 12-8-2 6-6 9Z" transform="translate(-1.8 -1.4)" fill="none" stroke="#fff4e4" stroke-width="2.6" stroke-opacity="0.62" stroke-linejoin="round"/><path d="M46 62q4-10 12-8-2 6-6 9Z" transform="translate(1.7 1.8)" fill="none" stroke="#0c0a12" stroke-width="3.4" stroke-opacity="0.5" stroke-linejoin="round"/></g></g><g stroke="#4c3c26" stroke-width="1.2" stroke-linejoin="round"><ellipse cx="40" cy="70" rx="7" ry="4" fill="url(#cap)" transform="rotate(-18 40 70)"/><ellipse cx="38" cy="72" rx="4" ry="1.6" fill="#e0c89c" opacity=".5" transform="rotate(-18 38 72)"/><ellipse cx="98" cy="66" rx="6" ry="3.4" fill="url(#cap)" transform="rotate(14 98 66)"/></g><g stroke="#302b38" stroke-width="1.8" stroke-linejoin="round"><path d="M34 78Q26 72 24 64 22 58 28 58 34 62 38 70 44 78 50 82Z" fill="url(#fur)"/><path d="M28 58q-6-2-6 4 2 6 8 8Z" fill="url(#paw)"/><g fill="none" stroke="#d6c6bb" stroke-width="1.3"><path d="M24 60l-4-2m4 8-5 1"/></g><path d="M36 74q-8-4-10-10" fill="none" stroke="#c2abb1" stroke-width="1" opacity=".4"/><g clip-path="url(#rim-7-0)"><path d="M28 58q-6-2-6 4 2 6 8 8Z" transform="translate(-1.8 -1.4)" fill="none" stroke="#fff4e4" stroke-width="2.6" stroke-opacity="0.62" stroke-linejoin="round"/><path d="M28 58q-6-2-6 4 2 6 8 8Z" transform="translate(1.7 1.8)" fill="none" stroke="#0c0a12" stroke-width="3.4" stroke-opacity="0.5" stroke-linejoin="round"/></g><g clip-path="url(#rim-7-1)"><path d="M34 78Q26 72 24 64 22 58 28 58 34 62 38 70 44 78 50 82Z" transform="translate(-1.8 -1.4)" fill="none" stroke="#fff4e4" stroke-width="2.6" stroke-opacity="0.62" stroke-linejoin="round"/><path d="M34 78Q26 72 24 64 22 58 28 58 34 62 38 70 44 78 50 82Z" transform="translate(1.7 1.8)" fill="none" stroke="#0c0a12" stroke-width="3.4" stroke-opacity="0.5" stroke-linejoin="round"/></g></g><g stroke="#302b38" stroke-width="1.8" stroke-linejoin="round"><path d="M78 84 90 86 102 90 112 96 110 101 98 96 86 92 76 90Z" fill="url(#fur)"/><path d="M110 95l8 5-2 4-8-4Z" fill="url(#paw)"/><g fill="none" stroke="#e1d1bc" stroke-width="1.3"><path d="M114 101l4 2m-6-1 2 3"/></g><path d="M82 88q12 3 22 10" fill="none" stroke="#ccbbbb" stroke-width="1" opacity=".45"/><g clip-path="url(#rim-9-0)"><path d="M110 95l8 5-2 4-8-4Z" transform="translate(-1.8 -1.4)" fill="none" stroke="#fff4e4" stroke-width="2.6" stroke-opacity="0.62" stroke-linejoin="round"/><path d="M110 95l8 5-2 4-8-4Z" transform="translate(1.7 1.8)" fill="none" stroke="#0c0a12" stroke-width="3.4" stroke-opacity="0.5" stroke-linejoin="round"/></g><g clip-path="url(#rim-9-1)"><path d="M78 84 90 86 102 90 112 96 110 101 98 96 86 92 76 90Z" transform="translate(-1.8 -1.4)" fill="none" stroke="#fff4e4" stroke-width="2.6" stroke-opacity="0.62" stroke-linejoin="round"/><path d="M78 84 90 86 102 90 112 96 110 101 98 96 86 92 76 90Z" transform="translate(1.7 1.8)" fill="none" stroke="#0c0a12" stroke-width="3.4" stroke-opacity="0.5" stroke-linejoin="round"/></g></g><g stroke="#4c3c26" stroke-width="1.4" stroke-linejoin="round"><path d="M78 60 76 50 84 54 92 48 96 58 106 62 116 68 118 78 112 86 100 84 92 76 82 76Z" fill="url(#bark)"/><path d="M78 52 72 44 82 46Z" fill="url(#bark)"/><path d="M92 48 92 38 100 46Z" fill="url(#bark)"/><path d="M84 62q10-4 16 0m-16 10 6 2m10-2 5 2" stroke="#c8b08c" stroke-width="1" opacity=".5" fill="none"/><path d="M114 80l6 2-4 4-6-2Z" fill="url(#bark)"/><path d="M118 74q6-6 10-2-4 4-8 5Z" fill="url(#moss)"/><g clip-path="url(#rim-11-0)"><path d="M118 74q6-6 10-2-4 4-8 5Z" transform="translate(-1.8 -1.4)" fill="none" stroke="#fff4e4" stroke-width="2.6" stroke-opacity="0.62" stroke-linejoin="round"/><path d="M118 74q6-6 10-2-4 4-8 5Z" transform="translate(1.7 1.8)" fill="none" stroke="#0c0a12" stroke-width="3.4" stroke-opacity="0.5" stroke-linejoin="round"/></g><g clip-path="url(#rim-11-1)"><path d="M114 80l6 2-4 4-6-2Z" transform="translate(-1.8 -1.4)" fill="none" stroke="#fff4e4" stroke-width="2.6" stroke-opacity="0.62" stroke-linejoin="round"/><path d="M114 80l6 2-4 4-6-2Z" transform="translate(1.7 1.8)" fill="none" stroke="#0c0a12" stroke-width="3.4" stroke-opacity="0.5" stroke-linejoin="round"/></g></g><g fill="#9ac264"><circle cx="28" cy="92" r="1" opacity=".45"/><circle cx="104" cy="98" r=".9" opacity=".4"/></g>
</svg>
