<svg xmlns="http://www.w3.org/2000/svg" viewBox="0 0 128 128">
<defs><radialGradient id="sh"><stop stop-color="#06050c" stop-opacity="0.8"/><stop offset="0.55" stop-color="#06050c" stop-opacity="0.42"/><stop offset="1" stop-color="#06050c" stop-opacity="0"/></radialGradient><linearGradient id="fur" x2="0.8" y2="1"><stop stop-color="#8a7488"/><stop offset="0.42" stop-color="#4c4058"/><stop offset="1" stop-color="#221e2e"/></linearGradient><linearGradient id="belly" x2="0.6" y2="1"><stop stop-color="#a892a0"/><stop offset="1" stop-color="#5c4c58"/></linearGradient><linearGradient id="paw" y2="1"><stop stop-color="#4e4256"/><stop offset="1" stop-color="#241f2c"/></linearGradient><linearGradient id="light" x2="0.7" y2="1"><stop stop-color="#d6c1bc" stop-opacity="0.74"/><stop offset="0.6" stop-color="#a99ba4" stop-opacity="0.24"/><stop offset="1" stop-color="#9b889d" stop-opacity="0"/></linearGradient><radialGradient id="venom"><stop stop-color="#1a1626" stop-opacity="0.95"/><stop offset="0.55" stop-color="#2c2038" stop-opacity="0.75"/><stop offset="0.85" stop-color="#4c3658" stop-opacity="0.3"/><stop offset="1" stop-color="#4c3658" stop-opacity="0"/></radialGradient><linearGradient id="chitin" x2="0.7" y2="1"><stop stop-color="#6e5a80"/><stop offset="0.45" stop-color="#3c3050"/><stop offset="1" stop-color="#221c30"/></linearGradient><radialGradient id="sac"><stop stop-color="#e8ffb0"/><stop offset="0.45" stop-color="#9ac24e"/><stop offset="1" stop-color="#3c5a24"/></radialGradient><clipPath id="rim-2-0"><path d="M40 84Q26 88 16 82 10 78 13 72 18 78 28 78 22 72 18 66 22 70 30 72 36 78Z"/></clipPath><clipPath id="rim-3-0"><path d="M88 68l6-2 1 4-6 2Z"/></clipPath><clipPath id="rim-3-1"><path d="M64 64 78 62 86 68 92 66 88 72 78 72 68 70Z"/></clipPath><clipPath id="rim-4-0"><path d="M112 76l7 1-2 5-7-1Z"/></clipPath><clipPath id="rim-4-1"><path d="M88 76 102 72 112 76 116 82 108 82 96 80Z"/></clipPath><clipPath id="rim-5-0"><path d="M40 86q16-16 36-18 24-2 34 6l4 12-14 8-40 2Z"/></clipPath><clipPath id="rim-5-1"><path d="M38 84q18-18 38-20 24-2 34 6-24-6-38 2-16 6-34 12Z"/></clipPath><clipPath id="rim-6-0"><path d="M60 62 72 56 88 58 92 68 80 72 64 70Z"/></clipPath><clipPath id="rim-7-0"><path d="M102 82q7-2 8 5-3 6-8 3-4-5 0-8Z"/></clipPath><clipPath id="rim-7-1"><path d="M92 88q5-1 6 4-2 4-6 2-3-4 0-6Z"/></clipPath><clipPath id="rim-8-0"><path d="M28 58q-6-2-6 4 2 6 8 8Z"/></clipPath><clipPath id="rim-8-1"><path d="M34 78Q26 72 24 64 22 58 28 58 34 62 38 70 44 78 50 82Z"/></clipPath><clipPath id="rim-10-0"><path d="M110 95l8 5-2 4-8-4Z"/></clipPath><clipPath id="rim-10-1"><path d="M78 84 90 86 102 90 112 96 110 101 98 96 86 92 76 90Z"/></clipPath><clipPath id="rim-12-0"><path d="M114 80l6 2-4 4-6-2Z"/></clipPath><clipPath id="rim-12-1"><path d="M112 74l7 2-3 5-6-2Z"/></clipPath></defs>
<ellipse cx="62" cy="88" rx="56" ry="18" fill="url(#venom)"/><ellipse cx="64" cy="84" rx="46" ry="13" fill="url(#sh)"/><ellipse cx="80" cy="100" rx="26" ry="8" fill="url(#sac)" opacity=".5"/><g fill="none" stroke="#2a2436" stroke-width="3.2" stroke-linecap="round" stroke-linejoin="round"><path d="M52 52q-14 -8 -22 -34"/><path d="M52 52q-18 2 -30 17"/><path d="M52 68q-14 -8 -22 -36"/><path d="M52 68q-18 2 -30 17"/><path d="M52 84q-14 -8 -22 -38"/><path d="M52 84q-18 2 -30 17"/></g><g fill="none" stroke="#2a2436" stroke-width="3.2" stroke-linecap="round" stroke-linejoin="round"><path d="M84 52q14 -8 22 -34"/><path d="M84 52q18 2 30 17"/><path d="M84 68q14 -8 22 -36"/><path d="M84 68q18 2 30 17"/><path d="M84 84q14 -8 22 -38"/><path d="M84 84q18 2 30 17"/></g><g stroke="#2f2939" stroke-width="1.8" stroke-linejoin="round"><path d="M40 84Q26 88 16 82 10 78 13 72 18 78 28 78 22 72 18 66 22 70 30 72 36 78Z" fill="url(#fur)"/><path d="M16 72q5 6 12 6-6 6-9-6Z" fill="#211f2e" opacity=".3"/><path d="M22 84q-8 2-12-2" stroke="#c2abb1" opacity=".5" stroke-width="1.4" fill="none"/><g clip-path="url(#rim-2-0)"><path d="M40 84Q26 88 16 82 10 78 13 72 18 78 28 78 22 72 18 66 22 70 30 72 36 78Z" transform="translate(-1.8 -1.4)" fill="none" stroke="#fff4e4" stroke-width="2.6" stroke-opacity="0.62" stroke-linejoin="round"/><path d="M40 84Q26 88 16 82 10 78 13 72 18 78 28 78 22 72 18 66 22 70 30 72 36 78Z" transform="translate(1.7 1.8)" fill="none" stroke="#0c0a12" stroke-width="3.4" stroke-opacity="0.5" stroke-linejoin="round"/></g></g><g stroke="#302b38" stroke-width="1.7" stroke-linejoin="round"><path d="M64 64 78 62 86 68 92 66 88 72 78 72 68 70Z" fill="url(#fur)"/><path d="M88 68l6-2 1 4-6 2Z" fill="url(#paw)"/><path d="M66 66q8-1 14 3" fill="none" stroke="#d6c1bc" stroke-width="1" opacity=".45"/><g clip-path="url(#rim-3-0)"><path d="M88 68l6-2 1 4-6 2Z" transform="translate(-1.8 -1.4)" fill="none" stroke="#fff4e4" stroke-width="2.6" stroke-opacity="0.62" stroke-linejoin="round"/><path d="M88 68l6-2 1 4-6 2Z" transform="translate(1.7 1.8)" fill="none" stroke="#0c0a12" stroke-width="3.4" stroke-opacity="0.5" stroke-linejoin="round"/></g><g clip-path="url(#rim-3-1)"><path d="M64 64 78 62 86 68 92 66 88 72 78 72 68 70Z" transform="translate(-1.8 -1.4)" fill="none" stroke="#fff4e4" stroke-width="2.6" stroke-opacity="0.62" stroke-linejoin="round"/><path d="M64 64 78 62 86 68 92 66 88 72 78 72 68 70Z" transform="translate(1.7 1.8)" fill="none" stroke="#0c0a12" stroke-width="3.4" stroke-opacity="0.5" stroke-linejoin="round"/></g></g><g stroke="#302b38" stroke-width="1.7" stroke-linejoin="round"><path d="M88 76 102 72 112 76 116 82 108 82 96 80Z" fill="url(#fur)"/><path d="M112 76l7 1-2 5-7-1Z" fill="url(#paw)"/><path d="M90 78q8-2 14 0" fill="none" stroke="#d6c1bc" stroke-width="1" opacity=".45"/><g clip-path="url(#rim-4-0)"><path d="M112 76l7 1-2 5-7-1Z" transform="translate(-1.8 -1.4)" fill="none" stroke="#fff4e4" stroke-width="2.6" stroke-opacity="0.62" stroke-linejoin="round"/><path d="M112 76l7 1-2 5-7-1Z" transform="translate(1.7 1.8)" fill="none" stroke="#0c0a12" stroke-width="3.4" stroke-opacity="0.5" stroke-linejoin="round"/></g><g clip-path="url(#rim-4-1)"><path d="M88 76 102 72 112 76 116 82 108 82 96 80Z" transform="translate(-1.8 -1.4)" fill="none" stroke="#fff4e4" stroke-width="2.6" stroke-opacity="0.62" stroke-linejoin="round"/><path d="M88 76 102 72 112 76 116 82 108 82 96 80Z" transform="translate(1.7 1.8)" fill="none" stroke="#0c0a12" stroke-width="3.4" stroke-opacity="0.5" stroke-linejoin="round"/></g></g><g stroke="#302b3a" stroke-width="1.8" stroke-linejoin="round"><path d="M28 86 38 76 52 66 76 60 98 62 112 72 118 82 112 90 86 92 62 90 38 92Z" fill="url(#fur)"/><path d="M40 86q16-16 36-18 24-2 34 6l4 12-14 8-40 2Z" fill="url(#belly)"/><path d="M38 84q18-18 38-20 24-2 34 6-24-6-38 2-16 6-34 12Z" fill="url(#light)" opacity=".55"/><path d="M30 88q8 6 18 4-10-2-18-4Z" fill="#211f2e" opacity=".35"/><path d="M52 74q12-6 24-6M60 82q14-4 26-4" fill="none" stroke="#c9b3b2" stroke-width="1.1" opacity=".35"/><g clip-path="url(#rim-5-0)"><path d="M40 86q16-16 36-18 24-2 34 6l4 12-14 8-40 2Z" transform="translate(-1.8 -1.4)" fill="none" stroke="#fff4e4" stroke-width="2.6" stroke-opacity="0.62" stroke-linejoin="round"/><path d="M40 86q16-16 36-18 24-2 34 6l4 12-14 8-40 2Z" transform="translate(1.7 1.8)" fill="none" stroke="#0c0a12" stroke-width="3.4" stroke-opacity="0.5" stroke-linejoin="round"/></g><g clip-path="url(#rim-5-1)"><path d="M38 84q18-18 38-20 24-2 34 6-24-6-38 2-16 6-34 12Z" transform="translate(-1.8 -1.4)" fill="none" stroke="#fff4e4" stroke-width="2.6" stroke-opacity="0.62" stroke-linejoin="round"/><path d="M38 84q18-18 38-20 24-2 34 6-24-6-38 2-16 6-34 12Z" transform="translate(1.7 1.8)" fill="none" stroke="#0c0a12" stroke-width="3.4" stroke-opacity="0.5" stroke-linejoin="round"/></g></g><g stroke="#2a2436" stroke-width="1.4" stroke-linejoin="round"><path d="M60 62 72 56 88 58 92 68 80 72 64 70Z" fill="url(#chitin)"/><path d="M72 57 88 59 88 65 72 63Z" fill="#8c7aa8" opacity=".35"/><g clip-path="url(#rim-6-0)"><path d="M60 62 72 56 88 58 92 68 80 72 64 70Z" transform="translate(-1.8 -1.4)" fill="none" stroke="#fff4e4" stroke-width="2.6" stroke-opacity="0.62" stroke-linejoin="round"/><path d="M60 62 72 56 88 58 92 68 80 72 64 70Z" transform="translate(1.7 1.8)" fill="none" stroke="#0c0a12" stroke-width="3.4" stroke-opacity="0.5" stroke-linejoin="round"/></g></g><g fill="url(#sac)" stroke="#3c5a24" stroke-width="1"><path d="M102 82q7-2 8 5-3 6-8 3-4-5 0-8Z"/><path d="M92 88q5-1 6 4-2 4-6 2-3-4 0-6Z"/><g clip-path="url(#rim-7-0)"><path d="M102 82q7-2 8 5-3 6-8 3-4-5 0-8Z" transform="translate(-1.8 -1.4)" fill="none" stroke="#fff4e4" stroke-width="2.6" stroke-opacity="0.62" stroke-linejoin="round"/><path d="M102 82q7-2 8 5-3 6-8 3-4-5 0-8Z" transform="translate(1.7 1.8)" fill="none" stroke="#0c0a12" stroke-width="3.4" stroke-opacity="0.5" stroke-linejoin="round"/></g><g clip-path="url(#rim-7-1)"><path d="M92 88q5-1 6 4-2 4-6 2-3-4 0-6Z" transform="translate(-1.8 -1.4)" fill="none" stroke="#fff4e4" stroke-width="2.6" stroke-opacity="0.62" stroke-linejoin="round"/><path d="M92 88q5-1 6 4-2 4-6 2-3-4 0-6Z" transform="translate(1.7 1.8)" fill="none" stroke="#0c0a12" stroke-width="3.4" stroke-opacity="0.5" stroke-linejoin="round"/></g></g><g stroke="#302b38" stroke-width="1.8" stroke-linejoin="round"><path d="M34 78Q26 72 24 64 22 58 28 58 34 62 38 70 44 78 50 82Z" fill="url(#fur)"/><path d="M28 58q-6-2-6 4 2 6 8 8Z" fill="url(#paw)"/><g fill="none" stroke="#d6c6bb" stroke-width="1.3"><path d="M24 60l-4-2m4 8-5 1"/></g><path d="M36 74q-8-4-10-10" fill="none" stroke="#c2abb1" stroke-width="1" opacity=".4"/><g clip-path="url(#rim-8-0)"><path d="M28 58q-6-2-6 4 2 6 8 8Z" transform="translate(-1.8 -1.4)" fill="none" stroke="#fff4e4" stroke-width="2.6" stroke-opacity="0.62" stroke-linejoin="round"/><path d="M28 58q-6-2-6 4 2 6 8 8Z" transform="translate(1.7 1.8)" fill="none" stroke="#0c0a12" stroke-width="3.4" stroke-opacity="0.5" stroke-linejoin="round"/></g><g clip-path="url(#rim-8-1)"><path d="M34 78Q26 72 24 64 22 58 28 58 34 62 38 70 44 78 50 82Z" transform="translate(-1.8 -1.4)" fill="none" stroke="#fff4e4" stroke-width="2.6" stroke-opacity="0.62" stroke-linejoin="round"/><path d="M34 78Q26 72 24 64 22 58 28 58 34 62 38 70 44 78 50 82Z" transform="translate(1.7 1.8)" fill="none" stroke="#0c0a12" stroke-width="3.4" stroke-opacity="0.5" stroke-linejoin="round"/></g></g><g stroke="#302b38" stroke-width="1.8" stroke-linejoin="round"><path d="M78 84 90 86 102 90 112 96 110 101 98 96 86 92 76 90Z" fill="url(#fur)"/><path d="M110 95l8 5-2 4-8-4Z" fill="url(#paw)"/><g fill="none" stroke="#e1d1bc" stroke-width="1.3"><path d="M114 101l4 2m-6-1 2 3"/></g><path d="M82 88q12 3 22 10" fill="none" stroke="#ccbbbb" stroke-width="1" opacity=".45"/><g clip-path="url(#rim-10-0)"><path d="M110 95l8 5-2 4-8-4Z" transform="translate(-1.8 -1.4)" fill="none" stroke="#fff4e4" stroke-width="2.6" stroke-opacity="0.62" stroke-linejoin="round"/><path d="M110 95l8 5-2 4-8-4Z" transform="translate(1.7 1.8)" fill="none" stroke="#0c0a12" stroke-width="3.4" stroke-opacity="0.5" stroke-linejoin="round"/></g><g clip-path="url(#rim-10-1)"><path d="M78 84 90 86 102 90 112 96 110 101 98 96 86 92 76 90Z" transform="translate(-1.8 -1.4)" fill="none" stroke="#fff4e4" stroke-width="2.6" stroke-opacity="0.62" stroke-linejoin="round"/><path d="M78 84 90 86 102 90 112 96 110 101 98 96 86 92 76 90Z" transform="translate(1.7 1.8)" fill="none" stroke="#0c0a12" stroke-width="3.4" stroke-opacity="0.5" stroke-linejoin="round"/></g></g><g stroke="#302936" stroke-width="1.8" stroke-linejoin="round"><path d="M78 60 76 48 84 54 92 46 96 58 106 62 116 68 118 78 112 86 100 84 92 76 82 76Z" fill="url(#chitin)"/><path d="M112 68q10 4 8 12l-6 6-10-1q12-6 8-17Z" fill="#201e2b" opacity=".3"/><path d="M78 50 72 40 82 44Z" fill="url(#fur)"/><path d="M92 46 92 34 100 44Z" fill="url(#fur)"/><path d="M80 62q10-6 16-1m-16 12 6 2m10-2 5 2" stroke="#a892c0" stroke-width="1" opacity=".5" fill="none"/><path d="M114 80l6 2-4 4-6-2Z" fill="url(#paw)"/><path d="M96 70q5-3 8 0l-2 4-6 1Z" fill="#1c1a26"/><path d="M100 82q5 3 10 1" fill="none" stroke="#3c3242" stroke-width="1"/><path d="M112 74l7 2-3 5-6-2Z" fill="url(#chitin)"/><path d="M118 80l3 4-2 1" stroke="#c8b0e0" stroke-width="1" fill="none"/><g clip-path="url(#rim-12-0)"><path d="M114 80l6 2-4 4-6-2Z" transform="translate(-1.8 -1.4)" fill="none" stroke="#fff4e4" stroke-width="2.6" stroke-opacity="0.62" stroke-linejoin="round"/><path d="M114 80l6 2-4 4-6-2Z" transform="translate(1.7 1.8)" fill="none" stroke="#0c0a12" stroke-width="3.4" stroke-opacity="0.5" stroke-linejoin="round"/></g><g clip-path="url(#rim-12-1)"><path d="M112 74l7 2-3 5-6-2Z" transform="translate(-1.8 -1.4)" fill="none" stroke="#fff4e4" stroke-width="2.6" stroke-opacity="0.62" stroke-linejoin="round"/><path d="M112 74l7 2-3 5-6-2Z" transform="translate(1.7 1.8)" fill="none" stroke="#0c0a12" stroke-width="3.4" stroke-opacity="0.5" stroke-linejoin="round"/></g></g><g fill="#9ac24e"><circle cx="30" cy="80" r="1" opacity=".5"/><circle cx="96" cy="104" r=".9" opacity=".5"/></g>
</svg>
