<svg xmlns="http://www.w3.org/2000/svg" viewBox="0 0 128 128">
  <defs>
    <linearGradient id="fur" x1="0" y1="0" x2=".8" y2="1"><stop stop-color="#b4a4a1"/><stop offset=".42" stop-color="#655b70"/><stop offset="1" stop-color="#272634"/></linearGradient>
    <linearGradient id="belly" x1="0" y1="0" x2=".6" y2="1"><stop stop-color="#d5c2b0"/><stop offset="1" stop-color="#6e6675"/></linearGradient>
    <linearGradient id="paw" x2="1" y2="1"><stop stop-color="#74616a"/><stop offset="1" stop-color="#262733"/></linearGradient>
    <radialGradient id="eye"><stop stop-color="#ffefaf"/><stop offset=".5" stop-color="#e67865"/><stop offset="1" stop-color="#9c3656"/></radialGradient>
  <linearGradient id="fur-light" x2=".7" y2="1"><stop stop-color="#d6c1bc" stop-opacity=".74"/><stop offset=".6" stop-color="#a99ba4" stop-opacity=".24"/><stop offset="1" stop-color="#9b889d" stop-opacity="0"/></linearGradient><radialGradient id="eye-halo"><stop stop-color="#ffdfbd" stop-opacity=".68"/><stop offset=".35" stop-color="#ed8b71" stop-opacity=".38"/><stop offset="1" stop-color="#c14960" stop-opacity="0"/></radialGradient></defs>
  <g data-part="tail" data-pivot="31 59" data-motion="tail" fill="url(#fur)" stroke="#2f2939" stroke-width="2" stroke-linejoin="round"><path d="M36 55Q22 50 13 38L18 49 7 41Q9 63 29 72L19 73 34 76 44 63Z"/><path d="M9 48q8 9 15 8 4 8 13 10l-5 6Q16 64 9 48Z" fill="#211f2e" opacity=".34"/><path d="M12 45q9 12 17 13" stroke="#c2abb1" opacity=".5" stroke-width="1.7" fill="none"/></g>
  <g data-part="rear-far" data-pivot="42 75" data-motion="leg-left" fill="url(#fur)" stroke="#302b38" stroke-width="2" stroke-linejoin="round"><path d="M39 72Q52 67 55 81l-7 14-2 11 9 8-3 5H38l-3-11 2-14-6-10Z"/><path d="M38 116l-4 3m13-3-3 3" stroke="#d8c6bd"/><path d="M48 74q9 8 2 21l-6 13 7 6-1 3H40l-3-10q10-8 11-33Z" fill="#171a27" opacity=".43"/></g>
  <g data-part="fore-far" data-pivot="84 73" data-motion="leg-right" fill="url(#paw)" stroke="#302b38" stroke-width="2" stroke-linejoin="round"><path d="M80 69q9-3 12 8l-2 18 4 14 11 7-2 4H88l-5-8-3-14-7-17z"/><path d="m88 77 6 11-3 12 11 15-12 1-7-18q6-12 5-21Z" fill="#151823" opacity=".45"/></g>
  <g data-part="body" data-pivot="65 63" data-motion="static" stroke="#302b3a" stroke-width="2" stroke-linejoin="round"><path d="M26 65Q27 52 41 47l4-7 5 3 8-6 10 10 13-7 4 5q16 3 16 20L90 80 71 83 48 79 35 82Z" fill="url(#fur)"/><path d="M35 66q8-17 17-13 12-8 19-3 14-7 22 5l4 8-10 13-31 4Z" fill="url(#belly)"/><path d="M33 63q9-17 20-16 12-7 20-2 13-5 22 5-17-2-29 9-19-5-33 4Z" fill="url(#fur-light)" opacity=".57"/><path d="M84 45q17 3 17 20L90 79 72 82q23-15 12-37Z" fill="#1c1b29" opacity=".4"/><path d="M76 45q11-6 16 6l5 7-5 4 4 6-7 2-2 10-6-7-5 8-4-9-6-1-3-13-5-5Z" fill="url(#fur)" stroke="#4d4355" stroke-width="1.2" opacity=".8"/><path d="M81 55q10 5 12 11l-7 8-5-5-3 7-2-14Z" fill="#23212f" opacity=".34"/><path d="M77 48q8-6 14 7l-5-2-6-3Z" fill="url(#fur-light)" opacity=".75"/><path d="M30 56q8-9 15-10l5-6 8-3 10 10m2-3q11-7 19 5" stroke="#c9b8c0" opacity=".56" stroke-width="1.5" fill="none"/></g>
  <g data-part="rear-near" data-pivot="43 78" data-motion="leg-right" fill="url(#fur)" stroke="#302b38" stroke-width="2" stroke-linejoin="round"><path d="M39 73Q55 70 58 82l-9 18-4 8 9 6-1 6H35l-4-9 4-14-5-12Z"/><path d="M39 115l-5 5m12-4-3 4" fill="none" stroke="#d6c6bb" stroke-width="1.5"/><path d="M50 79q10 10 2 24l2 10-2 6H38l-5-10q15-12 17-30Z" fill="#191b27" opacity=".35"/><path d="M36 79q8-5 15 2" stroke="#cbb5b4" opacity=".5" stroke-width="1.6" fill="none"/></g>
  <g data-part="fore-near" data-pivot="84 75" data-motion="leg-left" fill="url(#fur)" stroke="#302b38" stroke-width="2" stroke-linejoin="round"><path d="M80 70q13-3 16 11l-5 19 4 12 12 4-2 4H87l-6-9 1-14-8-13z"/><path d="M90 118l-4 2m17-2-3 2" stroke="#e1d1bc"/><path d="m91 77 7 12-7 19 12 11-13-1-7-9q11-14 8-32Z" fill="#1a1926" opacity=".33"/><path d="M80 75q8-4 13 2" stroke="#ccbbbb" opacity=".5" stroke-width="1.6" fill="none"/></g>
  <g data-part="head" data-pivot="94 51" data-motion="static" stroke="#302936" stroke-width="2" stroke-linejoin="round"><path d="M78 51L78 28 90 38 101 27 104 42Q114 45 117 60L123 67 116 78 105 77 98 69 87 70 81 62Z" fill="url(#fur)"/><path d="M81 37l2 14 8-7m10-7-3 12 8 2" fill="#d4aca5" stroke-width="1"/><path d="M97 57q9-6 16-2l-2 6-10 2Z" fill="url(#eye)" stroke-width="1"/><path d="M113 64l10 3-8 5z" fill="#252433"/><path d="M98 69q8 5 17 3l-6 9-11-6z" fill="#352b38"/><path d="M102 72l3 5 4-4 2 4 3-5" fill="url(#belly)" stroke-width=".6"/><path d="M110 52q9 8 10 16l-7 9-8-3q9-8 5-22Z" fill="#201e2b" opacity=".28"/><path d="M100 50q9-5 16 2" stroke="#ddc5c1" stroke-width="1.5" opacity=".48" fill="none"/><path d="M80 35q6-5 11 4m10-7 2 12" stroke="#dfc7c4" opacity=".55" stroke-width="1.6" fill="none"/><ellipse cx="107" cy="57" rx="8" ry="5" fill="url(#eye-halo)" opacity=".55"/></g>
</svg>
