<svg xmlns="http://www.w3.org/2000/svg" viewBox="0 0 128 128">
  <defs>
    <linearGradient id="leaf" x2=".8" y2="1"><stop stop-color="#a4ad76"/><stop offset=".4" stop-color="#506b47"/><stop offset="1" stop-color="#1c302e"/></linearGradient>
    <linearGradient id="fur" x2=".7" y2="1"><stop stop-color="#b6a588"/><stop offset=".45" stop-color="#716359"/><stop offset="1" stop-color="#292732"/></linearGradient>
    <linearGradient id="wood" x2="1" y2="1"><stop stop-color="#c4a67a"/><stop offset=".4" stop-color="#665343"/><stop offset="1" stop-color="#292734"/></linearGradient>
    <radialGradient id="seed"><stop stop-color="#f0f4bf"/><stop offset=".4" stop-color="#a8c778"/><stop offset="1" stop-color="#375b4d"/></radialGradient>
  </defs>
  <g data-part="mantle" data-pivot="64 47" data-motion="static" fill="url(#fur)" stroke="#202a2c" stroke-width="2"><path d="m39 41-12 14 4 14-9 20 13-5-1 16 19-9 24 11 16-8 8 4-5-18 5-7-9-20-12-14Z"/><path d="m32 58 7-8m-7 22 6-8m44-11 7 9m-7 8 8 9" stroke="#b4b194" stroke-width="1"/></g>
  <g data-part="left-leg" data-pivot="51 79" data-motion="leg-left" fill="url(#wood)" stroke="#202a2c" stroke-width="2"><path d="m44 76 15 1-4 24-4 12 1 7H30l3-8 8-7Z"/><path d="m43 97 12 1m-14 6 12 2m-16 8 15 1" fill="none" stroke="#bdaf8b" stroke-width="2"/><path d="m43 79 5 13 6-9" fill="none" stroke="#749473" stroke-width="1"/></g>
  <g data-part="right-leg" data-pivot="75 79" data-motion="leg-right" fill="url(#wood)" stroke="#202a2c" stroke-width="2"><path d="m67 76 16 1-3 28 7 8v7H66l-2-10Z"/><path d="m67 97 11 1m-12 6 12 2m-11 8 16 1" fill="none" stroke="#bdaf8b" stroke-width="2"/></g>
  <g data-part="staff-arm" data-pivot="85 50" data-motion="arm-right" stroke="#202a2c" stroke-width="2"><path d="m81 44 13 6 6 22-8 10-14-17Z" fill="url(#fur)"/><path d="m93 73 10-1 5 8-5 8-10-4Z" fill="url(#wood)"/><path d="M105 118 99 80l8-35-4-20" fill="none" stroke="url(#wood)" stroke-width="6"/><path d="m103 28-11-8 1-10m10 18 12-12-1-9m-10 21 1-18" fill="none" stroke="#a3aa84" stroke-width="3"/><circle cx="105" cy="28" r="6" fill="url(#seed)"/><path d="m108 43 10-7q-1 11-11 12m-5 7-9-5q-1 10 8 10" fill="url(#leaf)"/></g>
  <g data-part="body" data-pivot="64 57" data-motion="static" stroke="#202a2c" stroke-width="2"><path d="m43 44 21-7 19 10 1 27 4 18-15 10-11-9-21 8 3-23Z" fill="url(#wood)"/><path d="m43 45 18 10-9 14-15-12m46-12-19 10 12 14 13-12" fill="url(#leaf)"/><path d="m48 57 10 6m20-6-8 6" stroke="#cfcea3" stroke-width="1"/><path d="m48 68 14-5 16 6-7 15-13 4Z" fill="url(#leaf)"/><path d="M64 66v20m-8-12 8 4 8-7" fill="none" stroke="#b9ca8d" stroke-width="1.4"/><path d="m43 84 39-1-1 8-39 1Z" fill="url(#fur)"/><circle cx="63" cy="87" r="5" fill="url(#seed)"/><path d="m45 94 7-1-3 12-6-4m29-7 7-2 5 13-9-2" fill="url(#leaf)"/></g>
  <g data-part="head" data-pivot="64 35" data-motion="static" stroke="#242a2c" stroke-width="2"><path d="m52 24 23-2 3 19-11 13-13-10Z" fill="url(#wood)"/><path d="m50 33-4-15 15-7 18 8 3 14-12-7-11 2Z" fill="url(#fur)"/><path d="m53 31 5 4m11-1 6-4m-15 9 7 2-4 5" fill="none" stroke="#d9c5a0" stroke-width="1.5"/><path d="m48 24-9-9-2-12m7 15-13-4m5 0-7-8m48 18 11-10 3-12m-8 17 14-4m-6 0 5-8" fill="none" stroke="url(#fur)" stroke-width="3.5"/><path d="m55 40 8 5 10-7-4 13-8 6-5-8Z" fill="url(#fur)"/></g>
  <g data-part="vine-arm" data-pivot="40 50" data-motion="arm-left" stroke="#202a2c" stroke-width="2"><path d="m38 44-11 9-7 20 12 10 13-23Z" fill="url(#fur)"/><path d="m22 71-8 4 2 12 11 3 6-9Z" fill="url(#wood)"/><path d="M24 91Q4 94 12 73q8-19-2-26" fill="none" stroke="#779d68" stroke-width="3"/><path d="m11 54-8-5q1 11 10 11m-2 14-8 4q6 6 12 1" fill="url(#leaf)"/></g>
</svg>
