<svg xmlns="http://www.w3.org/2000/svg" viewBox="0 0 90 100"><defs><linearGradient id="body" x1="0" y1="0" x2="1" y2="1"><stop stop-color="#a64436"/><stop offset=".45" stop-color="#a64436"/><stop offset="1" stop-color="#151522"/></linearGradient><linearGradient id="silver" x2=".8" y2="1"><stop stop-color="#dfd8c5"/><stop offset=".5" stop-color="#7f8190"/><stop offset="1" stop-color="#343543"/></linearGradient><radialGradient id="glow"><stop stop-color="#fff0c4"/><stop offset=".35" stop-color="#a64436"/><stop offset="1" stop-color="#382744"/></radialGradient></defs><g fill="url(#body)" stroke="#171523" stroke-width="1.6" stroke-linejoin="round"><path d="M27 49L14 82 27 83 38 60 48 81 66 85 57 52Z"/><path d="M30 31L15 43 8 64 18 59 25 48 29 61 56 61 57 45 73 65 72 46 51 31Z"/><path d="M27 32L25 17 14 5 31 12 40 21 53 10 66 6 57 25 52 38Z"/><path d="M28 34L36 38M46 38L53 31" stroke="#ffc666" stroke-width="3"/><path d="M36 46L44 49 51 42" fill="none" stroke="#e5b78a"/></g></svg>
