<svg xmlns="http://www.w3.org/2000/svg" viewBox="0 0 1600 900"><defs><linearGradient id="sky" x2="0" y2="1"><stop stop-color="#080c1c"/><stop offset=".55" stop-color="#28243c"/><stop offset="1" stop-color="#705049"/></linearGradient><radialGradient id="halo"><stop stop-color="#d1b2a4" stop-opacity=".32"/><stop offset="1" stop-color="#9b7b92" stop-opacity="0"/></radialGradient><linearGradient id="moon" x2="1" y2="1"><stop stop-color="#f3e6cf"/><stop offset="1" stop-color="#9c93ad"/></linearGradient><linearGradient id="mount" x2="0" y2="1"><stop stop-color="#3c3c55"/><stop offset="1" stop-color="#141b2b"/></linearGradient><linearGradient id="earth" x2=".3" y2="1"><stop stop-color="#3e3b49"/><stop offset="1" stop-color="#080e19"/></linearGradient><linearGradient id="path" x2="0" y2="1"><stop stop-color="#9b7770"/><stop offset="1" stop-color="#292738"/></linearGradient><radialGradient id="fire"><stop stop-color="#fff0be"/><stop offset=".3" stop-color="#efa465"/><stop offset="1" stop-color="#b36148" stop-opacity="0"/></radialGradient><pattern id="stars" width="233" height="173" patternUnits="userSpaceOnUse"><circle cx="27" cy="31" r="1" fill="#d6cfc7" opacity=".6"/><circle cx="187" cy="94" r=".7" fill="#b5bfd6" opacity=".6"/><circle cx="91" cy="133" r="1.2" fill="#c3b6b6" opacity=".4"/></pattern></defs><path fill="url(#sky)" d="M0 0h1600v900H0z"/><path fill="url(#stars)" d="M0 0h1600v580H0z"/><ellipse cx="1110" cy="244" rx="380" ry="330" fill="url(#halo)"/><path d="M1190 118a133 133 0 1 0 31 217 125 125 0 0 1-31-217Z" fill="url(#moon)"/><path d="m0 510 153-131 99 50 146-162 172 158 84-89 134 141 108-80 123 70 150-145 128 101 106-53 197 154v376H0Z" fill="url(#mount)"/><path d="m386 278-78 128 84-44 57 21m713-49-43 74 50-20 55 47" fill="none" stroke="#8b8090" stroke-width="3" opacity=".3"/><path d="M0 568q259-104 475 31 256-114 485-35 286-115 640 47v289H0Z" fill="url(#earth)"/><path d="M871 558q-104 50 3 87t-58 80q-181 67-113 175h222q-102-113 16-163t-18-107q-99-30-27-72Z" fill="url(#path)"/><g fill="#252936" stroke="#5e5157" stroke-width="2"><path d="M825 555v-82l43-30 45 28v86Z"/><path d="m814 476 55-56 57 55-13 9-43-40-45 41Z" fill="#151c2b"/><path d="M959 563v-59l46-32 47 30v61Z"/><path d="m946 505 59-57 61 54-14 10-47-39-46 40Z" fill="#182031"/><path d="M743 587v-52l-43-27-49 29v51Z"/><path d="m637 539 64-51 54 45-12 12-42-29-49 31Z" fill="#151d2c"/><path d="M898 537V390l24-42 24 42v149Z"/><path d="m889 393 32-74 34 74Z" fill="#161e2d"/></g><g fill="#e3aa72"><path d="M859 531v-34q11-16 22 0v34Z"/><path d="M918 465v-25q5-8 11 0v25Z"/><path d="M997 541v-22h17v22Zm-309 18v-21h17v21Z"/></g><g fill="url(#fire)"><ellipse cx="870" cy="520" rx="53" ry="68"/><ellipse cx="1005" cy="540" rx="39" ry="47"/><ellipse cx="698" cy="558" rx="36" ry="45"/></g><g fill="#0b1320" stroke="#30303c" stroke-width="3"><path d="M111 900 134 506l-77-80 65 41-12-127 35 142 53-98-39 159 15 357Z"/><path d="m134 590-82-56-35-75 58 65 57 28m21-75 66-63 11-77-40 76-42 28" fill="none" stroke-width="12"/><path d="m1488 900-18-431-75-159 86 102 29-176 9 226 68-66-63 116 29 388Z"/><path d="m1480 567-99-75-41-78 67 65 69 35m44-106 54-95 9-106" fill="none" stroke-width="13"/><path d="m0 866 123-50 135 39 148-39 87 84H0Zm1187 34 122-109 115 32 86-59 90 16v120Z"/></g><path d="M0 630q380-72 757-1t843-4M0 669q482-61 913 1t687-6" fill="none" stroke="#b49da7" stroke-width="22" opacity=".055"/><g fill="#deb080" opacity=".6"><circle cx="822" cy="683" r="2"/><circle cx="846" cy="644" r="1.3"/><circle cx="954" cy="681" r="1.5"/><circle cx="738" cy="766" r="1.4"/></g></svg>
