<svg xmlns="http://www.w3.org/2000/svg" viewBox="0 0 90 100"><defs><linearGradient id="body" x1="0" y1="0" x2="1" y2="1"><stop stop-color="#ad874c"/><stop offset=".45" stop-color="#ad874c"/><stop offset="1" stop-color="#151522"/></linearGradient><linearGradient id="silver" x2=".8" y2="1"><stop stop-color="#dfd8c5"/><stop offset=".5" stop-color="#7f8190"/><stop offset="1" stop-color="#343543"/></linearGradient><radialGradient id="glow"><stop stop-color="#fff0c4"/><stop offset=".35" stop-color="#ad874c"/><stop offset="1" stop-color="#382744"/></radialGradient></defs><g fill="url(#body)" stroke="#171523" stroke-width="1.6" stroke-linejoin="round"><path d="M25 42L15 65 24 71 33 53M56 42L68 62 60 69 49 51"/><path d="M29 57L24 88 35 90 42 66 47 89 58 87 52 56"/><path d="M24 35L40 28 58 36 54 62 40 70 27 60Z"/><path d="M28 31L27 16 39 9 52 16 54 31 42 38Z"/><path d="M24 38L40 47 58 37M40 47V66M32 21L48 21" stroke="#f6d6a3"/><path d="M62 60L67 13 73 5 76 15 68 61Z" fill="url(#silver)"/><path d="M57 57L74 61" stroke="#eac578" stroke-width="4"/></g></svg>
