<svg xmlns="http://www.w3.org/2000/svg" viewBox="0 0 90 100"><defs><linearGradient id="body" x1="0" y1="0" x2="1" y2="1"><stop stop-color="#8152b2"/><stop offset=".45" stop-color="#8152b2"/><stop offset="1" stop-color="#151522"/></linearGradient><linearGradient id="silver" x2=".8" y2="1"><stop stop-color="#dfd8c5"/><stop offset=".5" stop-color="#7f8190"/><stop offset="1" stop-color="#343543"/></linearGradient><radialGradient id="glow"><stop stop-color="#fff0c4"/><stop offset=".35" stop-color="#8152b2"/><stop offset="1" stop-color="#382744"/></radialGradient></defs><g fill="url(#body)" stroke="#171523" stroke-width="1.6" stroke-linejoin="round"><path d="M31 35L22 57 12 81 40 92 65 82 51 38Z"/><path d="M32 36L18 55 10 45 7 50 17 66 36 48M49 39L61 51 71 31 76 34 65 63 47 54"/><path d="M27 28L40 6 51 27 60 32 21 35Z"/><ellipse cx="40" cy="32" rx="10" ry="11" fill="url(#silver)"/><path d="M39 44L35 78M26 81L51 82" stroke="#e7b5ff"/><path d="M73 26L68 88" stroke="#a48768" stroke-width="4"/><circle cx="74" cy="22" r="8" fill="url(#glow)"/></g></svg>
