<svg xmlns="http://www.w3.org/2000/svg" width="180" height="180" viewBox="0 0 512 512"><defs><radialGradient id="bg" cx=".35" cy=".26" r=".85"><stop stop-color="#373044"/><stop offset=".62" stop-color="#1a1928"/><stop offset="1" stop-color="#090c14"/></radialGradient><radialGradient id="aura" cx=".46" cy=".38"><stop stop-color="#d4a66c" stop-opacity=".24"/><stop offset=".55" stop-color="#b78466" stop-opacity=".08"/><stop offset="1" stop-color="#a38065" stop-opacity="0"/></radialGradient><linearGradient id="gold" x1=".12" y1=".06" x2=".87" y2=".93"><stop stop-color="#fff3c9"/><stop offset=".26" stop-color="#e5c991"/><stop offset=".58" stop-color="#b08b62"/><stop offset="1" stop-color="#554355"/></linearGradient><linearGradient id="steel" x1=".15" y1="0" x2=".76" y2=".9"><stop stop-color="#fff1d7"/><stop offset=".28" stop-color="#bdc2c7"/><stop offset=".65" stop-color="#737c90"/><stop offset="1" stop-color="#35364a"/></linearGradient><linearGradient id="haft" x1="0" x2="1"><stop stop-color="#eed2aa"/><stop offset=".38" stop-color="#9a795f"/><stop offset="1" stop-color="#403247"/></linearGradient></defs><rect width="512" height="512" rx="112" fill="url(#bg)"/><circle cx="256" cy="252" r="205" fill="url(#aura)"/><circle cx="256" cy="256" r="212" fill="none" stroke="#a78364" stroke-opacity=".62" stroke-width="4"/><circle cx="256" cy="256" r="201" fill="none" stroke="#bea178" stroke-opacity=".25" stroke-width="2"/><path d="M339 77A183 183 0 1 0 429 339A150 150 0 0 1 339 77Z" fill="url(#gold)" stroke="#3e3540" stroke-width="3" stroke-linejoin="round"/><path d="M333 81A180 180 0 0 0 110 270" fill="none" stroke="#fff2cf" stroke-width="5" stroke-opacity=".69"/><path d="M130 342q40 79 138 91m102-53q30-11 49-33" fill="none" stroke="#f5ce94" stroke-width="3" stroke-opacity=".38"/><path d="M165 397L282 131 304 139 185 409Z" fill="url(#haft)" stroke="#453746" stroke-width="3"/><path d="M174 392 287 137" fill="none" stroke="#f7deb8" stroke-width="3" stroke-opacity=".62"/><path d="M171 149Q285 40 405 196Q346 143 285 173Q229 169 183 206L217 155Z" fill="url(#steel)" stroke="#dac5a9" stroke-width="3" stroke-linejoin="round"/><path d="M181 153q114-98 213 29-57-62-115-39-42 4-65 24" fill="none" stroke="#fff2d9" stroke-width="5" stroke-opacity=".65"/><path d="m196 191 28-18q62-35 120-8" fill="none" stroke="#4c485a" stroke-width="3" opacity=".63"/><path d="M273 169 295 179M257 205 279 215M238 243 260 253M222 281 242 291" stroke="#473743" stroke-width="6"/><path d="M107 130 111 144 125 148 111 152 107 166 103 152 89 148 103 144Z" fill="#f8e6b6"/><circle cx="107" cy="148" r="21" fill="url(#aura)"/></svg>
